<svg width="24" height="24" viewBox="0 0 24 24" fill="none" xmlns="http://www.w3.org/2000/svg">
<path d="M12 3C12.2984 3 12.5845 3.11853 12.7955 3.3295C13.0065 3.54048 13.125 3.82663 13.125 4.125V10.875H19.875C20.1734 10.875 20.4595 10.9935 20.6705 11.2045C20.8815 11.4155 21 11.7016 21 12C21 12.2984 20.8815 12.5845 20.6705 12.7955C20.4595 13.0065 20.1734 13.125 19.875 13.125H13.125V19.875C13.125 20.1734 13.0065 20.4595 12.7955 20.6705C12.5845 20.8815 12.2984 21 12 21C11.7016 21 11.4155 20.8815 11.2045 20.6705C10.9935 20.4595 10.875 20.1734 10.875 19.875V13.125H4.125C3.82663 13.125 3.54048 13.0065 3.3295 12.7955C3.11853 12.5845 3 12.2984 3 12C3 11.7016 3.11853 11.4155 3.3295 11.2045C3.54048 10.9935 3.82663 10.875 4.125 10.875H10.875V4.125C10.875 3.82663 10.9935 3.54048 11.2045 3.3295C11.4155 3.11853 11.7016 3 12 3V3Z" fill="#FAFAFC"/>
</svg>
