<svg width="24" height="24" viewBox="0 0 24 24" fill="none" xmlns="http://www.w3.org/2000/svg">
<path d="M20.9999 17.5386C20.9999 17.154 20.8653 16.8271 20.5961 16.5579L17.5961 13.5579C17.3269 13.2886 16.9999 13.154 16.6153 13.154C16.2115 13.154 15.8653 13.3079 15.5769 13.6156C15.6057 13.6444 15.6971 13.7334 15.8509 13.8824C16.0048 14.0314 16.1081 14.1348 16.161 14.1925C16.2139 14.2502 16.286 14.3415 16.3773 14.4665C16.4687 14.5915 16.5312 14.7141 16.5648 14.8343C16.5985 14.9545 16.6153 15.0867 16.6153 15.231C16.6153 15.6156 16.4807 15.9425 16.2115 16.2117C15.9423 16.481 15.6153 16.6156 15.2307 16.6156C15.0865 16.6156 14.9543 16.5987 14.8341 16.5651C14.7139 16.5314 14.5913 16.4689 14.4663 16.3776C14.3413 16.2862 14.2499 16.2141 14.1923 16.1612C14.1346 16.1084 14.0312 16.005 13.8822 15.8511C13.7331 15.6973 13.6442 15.606 13.6153 15.5771C13.298 15.8752 13.1394 16.2261 13.1394 16.63C13.1394 17.0146 13.274 17.3415 13.5432 17.6108L16.5144 20.5963C16.774 20.856 17.1009 20.9858 17.4951 20.9858C17.8798 20.9858 18.2067 20.8608 18.4759 20.6108L20.5961 18.505C20.8653 18.2358 20.9999 17.9136 20.9999 17.5386ZM10.8605 7.37038C10.8605 6.98576 10.7259 6.65884 10.4567 6.38961L7.48552 3.40403C7.21629 3.1348 6.88937 3.00019 6.50475 3.00019C6.12975 3.00019 5.80283 3.13 5.52398 3.38961L3.40379 5.49538C3.13456 5.76461 2.99994 6.08673 2.99994 6.46173C2.99994 6.84634 3.13456 7.17326 3.40379 7.4425L6.40379 10.4425C6.66341 10.7021 6.99033 10.8319 7.38456 10.8319C7.78841 10.8319 8.13456 10.6829 8.42302 10.3848C8.39417 10.356 8.30283 10.267 8.14898 10.118C7.99514 9.96894 7.89177 9.86557 7.83889 9.80788C7.786 9.75019 7.71389 9.65884 7.62254 9.53384C7.53119 9.40884 7.46869 9.28625 7.43504 9.16605C7.40139 9.04586 7.38456 8.91365 7.38456 8.76942C7.38456 8.3848 7.51917 8.05788 7.78841 7.78865C8.05764 7.51942 8.38456 7.3848 8.76917 7.3848C8.91341 7.3848 9.04562 7.40163 9.16581 7.43528C9.286 7.46894 9.4086 7.53144 9.5336 7.62278C9.6586 7.71413 9.74994 7.78625 9.80764 7.83913C9.86533 7.89201 9.96869 7.99538 10.1177 8.14923C10.2668 8.30307 10.3557 8.39442 10.3846 8.42326C10.7019 8.12519 10.8605 7.77423 10.8605 7.37038ZM23.7692 17.5386C23.7692 18.6925 23.3605 19.6685 22.5432 20.4665L20.423 22.5723C19.6249 23.3704 18.649 23.7694 17.4951 23.7694C16.3317 23.7694 15.3509 23.3608 14.5528 22.5435L11.5817 19.5579C10.7836 18.7598 10.3846 17.7838 10.3846 16.63C10.3846 15.4473 10.8076 14.4425 11.6538 13.6156L10.3846 12.3463C9.55764 13.1925 8.55764 13.6156 7.38456 13.6156C6.23071 13.6156 5.24994 13.2117 4.44225 12.404L1.44225 9.40403C0.634559 8.59634 0.230713 7.61557 0.230713 6.46173C0.230713 5.30788 0.639367 4.33192 1.45667 3.53384L3.57687 1.42807C4.37494 0.629996 5.35091 0.230957 6.50475 0.230957C7.66821 0.230957 8.64898 0.639611 9.44706 1.45692L12.4182 4.4425C13.2163 5.24057 13.6153 6.21653 13.6153 7.37038C13.6153 8.55307 13.1923 9.55788 12.3461 10.3848L13.6153 11.654C14.4423 10.8079 15.4423 10.3848 16.6153 10.3848C17.7692 10.3848 18.7499 10.7886 19.5576 11.5963L22.5576 14.5963C23.3653 15.404 23.7692 16.3848 23.7692 17.5386Z" fill="#FAFAFC"/>
</svg>
